#tb 0: 1/25
#media_type 0: video
#codec_id 0: rawvideo
#dimensions 0: 352x576
#sar 0: 0/1
0,          0,          0,        1,   304128, 0x0b6b13ed
0,          1,          1,        1,   304128, 0x406bcaa2
0,          2,          2,        1,   304128, 0xb0deeca3
0,          3,          3,        1,   304128, 0x5781016f
0,          4,          4,        1,   304128, 0xff6c6cb3
0,          5,          5,        1,   304128, 0x197151db
0,          6,          6,        1,   304128, 0xca1cf846
0,          7,          7,        1,   304128, 0x396e1767
0,          8,          8,        1,   304128, 0x0215005b
0,          9,          9,        1,   304128, 0xd9ae722a
0,         10,         10,        1,   304128, 0xd0f98ec0
0,         11,         11,        1,   304128, 0x1d0ef9b9
0,         12,         12,        1,   304128, 0xef005ad1
0,         13,         13,        1,   304128, 0x00564455
0,         14,         14,        1,   304128, 0xe3eb1bc9
0,         15,         15,        1,   304128, 0xd9731e0a
0,         16,         16,        1,   304128, 0xebf39c30
0,         17,         17,        1,   304128, 0xada17190
0,         18,         18,        1,   304128, 0x17add598
0,         19,         19,        1,   304128, 0xcdebb80d
0,         20,         20,        1,   304128, 0xb0d5eaef
0,         21,         21,        1,   304128, 0xd0ed4824
0,         22,         22,        1,   304128, 0x735c3ab2
0,         23,         23,        1,   304128, 0x462ed1de
0,         24,         24,        1,   304128, 0x2825f3bb
0,         25,         25,        1,   304128, 0x8f55327b
0,         26,         26,        1,   304128, 0x216e2d79
0,         27,         27,        1,   304128, 0x2cd4b11d
0,         28,         28,        1,   304128, 0x9f2248b9
0,         29,         29,        1,   304128, 0x7353ca1c
0,         30,         30,        1,   304128, 0x5e89d594
0,         31,         31,        1,   304128, 0x81368a4b
0,         32,         32,        1,   304128, 0x1c76f929
0,         33,         33,        1,   304128, 0x7dd2f460
0,         34,         34,        1,   304128, 0x85e486f0
0,         35,         35,        1,   304128, 0x95ac2a05
0,         36,         36,        1,   304128, 0x0daa6f56
0,         37,         37,        1,   304128, 0x698e03f0
0,         38,         38,        1,   304128, 0x2c60b298
0,         39,         39,        1,   304128, 0x74d59dba
0,         40,         40,        1,   304128, 0xf28bb24a
0,         41,         41,        1,   304128, 0x01ba3c1f
0,         42,         42,        1,   304128, 0x656d7f61
0,         43,         43,        1,   304128, 0x516341d8
0,         44,         44,        1,   304128, 0xa06008e2
0,         45,         45,        1,   304128, 0x0684fce6
0,         46,         46,        1,   304128, 0x5e99a7fe
0,         47,         47,        1,   304128, 0xe41d8b93
0,         48,         48,        1,   304128, 0x0cee6915
0,         49,         49,        1,   304128, 0x89cdb1e3
